<?xml version="1.0" encoding="UTF-8"?>
<svg id="Layer_2" data-name="Layer 2" xmlns="http://www.w3.org/2000/svg" viewBox="0 0 1765.29 215.73">
  <defs>
    <style>
      .cls-1 {
        fill: #fff;
      }

      .cls-2 {
        fill: #009eff;
      }
    </style>
  </defs>
  <g id="uuid-8f55bffc-79ba-4839-a29e-035dce737ede">
    <g>
      <polygon class="cls-1" points="1220.77 12.3 1171.98 12.3 1102.21 211.75 1144.69 211.75 1153.09 186.35 1204.09 186.35 1204.09 148.29 1166.02 148.29 1196.48 57.56 1223.87 139.1 1223.77 139.1 1236.07 175.8 1248.06 211.75 1290.86 211.75 1220.77 12.3"/>
      <g>
        <path class="cls-2" d="m238,119.02c0,15.16-2.85,29.65-8.05,42.99-2.17,5.56-9.3,7.12-13.52,2.9l-17.04-17.04c-1.4-1.4-1.85-3.43-1.29-5.32,2.74-9.11,3.92-18.87,3.26-29-2.55-39.29-33.43-71.99-72.54-76.51-49.9-5.77-92.34,33.27-92.34,81.99,0,7.84,1.1,15.43,3.17,22.62.71,2.45.12,5.09-1.69,6.9l-16.38,16.38c-4.22,4.22-11.35,2.66-13.53-2.91C1.43,145.05-1.37,126.21.64,106.53,6.26,51.58,50.22,7.06,105.1.8c71.79-8.2,132.9,48,132.9,118.23Z"/>
        <path class="cls-2" d="m209.22,195.08l-14.14,14.17c-3.21,3.21-8.42,3.22-11.63,0l-64.43-64.43-43.99,43.99-20.55,20.52c-3.21,3.2-8.38,3.22-11.59.02-4.27-4.26-9.98-10.05-14.18-14.32-3.16-3.22-3.13-8.37.06-11.56l84.19-84.19c3.35-3.35,8.77-3.34,12.12,0l63.69,63.73,20.45,20.45c3.21,3.21,3.21,8.41,0,11.62Z"/>
      </g>
      <path class="cls-1" d="m574.75,170.14c0,30.77-26.78,45.59-57.27,45.59-28.49,0-49.58-11.96-59.83-33.91l31.91-17.95c3.99,11.68,13.67,18.53,27.92,18.53,11.68,0,19.66-3.99,19.66-12.26,0-20.79-73.51-9.4-73.51-59.54,0-29.06,24.79-45.31,54.13-45.31,23.08,0,43.03,10.54,54.13,30.21l-31.34,17.1c-4.27-9.12-12.25-14.54-22.8-14.54-9.12,0-16.52,3.99-16.52,11.68,0,21.09,73.51,7.97,73.51,60.4Z"/>
      <path class="cls-1" d="m698.42,170.14c0,30.77-26.78,45.59-57.27,45.59-28.49,0-49.58-11.96-59.83-33.91l31.91-17.95c3.99,11.68,13.67,18.53,27.92,18.53,11.68,0,19.66-3.99,19.66-12.26,0-20.79-73.51-9.4-73.51-59.54,0-29.06,24.79-45.31,54.13-45.31,23.08,0,43.03,10.54,54.13,30.21l-31.34,17.1c-4.27-9.12-12.25-14.54-22.8-14.54-9.12,0-16.52,3.99-16.52,11.68,0,21.09,73.51,7.97,73.51,60.4Z"/>
      <path class="cls-1" d="m791.32,182.4c14.24,0,25.64-5.99,31.91-14.25l29.62,17.1c-13.39,19.37-34.75,30.49-62.11,30.49-47.86,0-78.06-32.77-78.06-75.21s30.48-75.23,75.21-75.23c42.16,0,72.08,33.34,72.08,75.23,0,5.41-.57,10.25-1.42,15.1h-107.41c5.13,18.8,20.8,26.78,40.17,26.78Zm31.91-55.28c-4.57-20.51-19.95-28.78-35.33-28.78-19.66,0-33.05,10.54-37.33,28.78h72.65Z"/>
      <path class="cls-1" d="m930.66,104.62v59.26c0,15.39,11.12,15.67,32.21,14.54v33.33c-51.58,5.69-68.96-9.4-68.96-47.87v-59.26h-24.79v-35.33h24.79v-28.78l36.75-11.11v39.89h32.21v35.33h-32.21Z"/>
      <path class="cls-1" d="m1093.08,170.14c0,30.77-26.78,45.59-57.27,45.59-28.49,0-49.57-11.96-59.82-33.91l31.9-17.95c3.99,11.68,13.68,18.53,27.92,18.53,11.68,0,19.67-3.99,19.67-12.26,0-20.79-73.51-9.4-73.51-59.54,0-29.06,24.79-45.31,54.14-45.31,23.07,0,43.02,10.54,54.13,30.21l-31.34,17.1c-4.27-9.12-12.25-14.54-22.79-14.54-9.12,0-16.53,3.99-16.53,11.68,0,21.09,73.51,7.97,73.51,60.4Z"/>
      <path class="cls-1" d="m1352.13,104.62v59.26c0,15.39,11.11,15.67,32.19,14.54v33.33c-51.57,5.69-68.96-9.4-68.96-47.87v-59.26h-24.79v-35.33h24.79v-28.78l36.76-11.11v39.89h32.19v35.33h-32.19Z"/>
      <path class="cls-1" d="m1410.26,3.76h36.75v207.99h-36.75V3.76Z"/>
      <path class="cls-1" d="m1625.66,69.29v142.46h-36.75v-16.81c-10.26,12.82-25.64,20.8-46.45,20.8-37.89,0-69.23-32.77-69.23-75.21s31.34-75.23,69.23-75.23c20.8,0,36.19,7.98,46.45,20.8v-16.81h36.75Zm-36.75,71.23c0-23.94-16.81-40.18-39.6-40.18s-39.32,16.24-39.32,40.18,16.81,40.17,39.32,40.17,39.6-16.24,39.6-40.17Z"/>
      <path class="cls-1" d="m1765.29,170.14c0,30.77-26.78,45.59-57.27,45.59-28.49,0-49.57-11.96-59.82-33.91l31.9-17.95c3.99,11.68,13.68,18.53,27.92,18.53,11.68,0,19.67-3.99,19.67-12.26,0-20.79-73.51-9.4-73.51-59.54,0-29.06,24.79-45.31,54.14-45.31,23.07,0,43.02,10.54,54.13,30.21l-31.34,17.1c-4.27-9.12-12.25-14.54-22.79-14.54-9.12,0-16.53,3.99-16.53,11.68,0,21.09,73.51,7.97,73.51,60.4Z"/>
      <polygon class="cls-1" points="381.02 12.3 332.23 12.3 262.46 211.75 304.94 211.75 313.33 186.35 364.34 186.35 364.34 148.29 326.27 148.29 356.73 57.56 384.12 139.1 384.02 139.1 396.32 175.8 408.31 211.75 451.11 211.75 381.02 12.3"/>
    </g>
  </g>
</svg>