<?xml version="1.0" encoding="UTF-8"?>
<svg id="Layer_2" data-name="Layer 2" xmlns="http://www.w3.org/2000/svg" viewBox="0 0 624.9 555.95">
  <defs>
    <style>
      .cls-1 {
        fill: #fff;
      }
    </style>
  </defs>
  <g id="uuid-8f55bffc-79ba-4839-a29e-035dce737ede">
    <g>
      <path class="cls-1" d="m624.9,312.51c0,39.79-7.48,77.86-21.15,112.87-5.7,14.6-24.42,18.7-35.51,7.62l-44.74-44.75c-3.66-3.66-4.87-9.02-3.38-13.98,7.19-23.92,10.29-49.54,8.56-76.14-6.7-103.16-87.77-189.01-190.47-200.89-131.03-15.16-242.46,87.36-242.46,215.27,0,20.59,2.9,40.51,8.33,59.38,1.85,6.44.31,13.37-4.43,18.11l-43,43c-11.09,11.09-29.81,6.97-35.51-7.64C3.76,380.85-3.6,331.39,1.68,279.72,16.44,135.44,131.86,18.55,275.96,2.09c188.51-21.53,348.94,126.02,348.94,310.42Z"/>
      <path class="cls-1" d="m549.35,512.21l-37.14,37.2c-8.42,8.44-22.1,8.45-30.53.01l-169.17-169.17-115.5,115.5-53.96,53.87c-8.42,8.4-22.01,8.45-30.43.06-11.21-11.18-26.2-26.38-37.23-37.61-8.3-8.45-8.21-21.97.17-30.35l221.05-221.05c8.78-8.78,23.03-8.78,31.81,0l167.22,167.33,53.7,53.7c8.42,8.42,8.43,22.07.01,30.5Z"/>
    </g>
  </g>
</svg>