<?xml version="1.0" encoding="UTF-8"?>
<svg id="uuid-8f55bffc-79ba-4839-a29e-035dce737ede" xmlns="http://www.w3.org/2000/svg" viewBox="0 0 1670.69 1147.94">
  <defs>
    <style>
      .cls-1 {
        fill: #fff;
      }

      .cls-2 {
        fill: #009eff;
      }
    </style>
  </defs>
  <rect class="cls-2" x="-52.37" y="-37.61" width="1775.44" height="1223.15"/>
  <g>
    <polygon class="cls-1" points="971.77 535.41 952.08 535.41 923.93 615.89 941.07 615.89 944.46 605.64 965.04 605.64 965.04 590.28 949.68 590.28 961.97 553.67 973.02 586.57 972.98 586.57 977.94 601.38 982.78 615.89 1000.05 615.89 971.77 535.41"/>
    <g>
      <path class="cls-1" d="m575.25,578.47c0,6.11-1.15,11.96-3.25,17.34-.88,2.24-3.75,2.87-5.46,1.17l-6.88-6.88c-.56-.56-.75-1.39-.52-2.15,1.1-3.68,1.58-7.61,1.32-11.7-1.03-15.85-13.49-29.04-29.27-30.87-20.13-2.33-37.26,13.42-37.26,33.08,0,3.16.44,6.22,1.28,9.12.28.99.05,2.05-.68,2.78l-6.61,6.61c-1.7,1.7-4.58,1.07-5.46-1.17-2.67-6.84-3.8-14.44-2.99-22.38,2.27-22.17,20-40.13,42.15-42.66,28.97-3.31,53.62,19.36,53.62,47.7Z"/>
      <path class="cls-1" d="m563.64,609.16l-5.71,5.72c-1.29,1.3-3.4,1.3-4.69,0l-26-26-17.75,17.75-8.29,8.28c-1.29,1.29-3.38,1.3-4.68,0-1.72-1.72-4.03-4.05-5.72-5.78-1.28-1.3-1.26-3.38.03-4.66l33.97-33.97c1.35-1.35,3.54-1.35,4.89,0l25.7,25.71,8.25,8.25c1.29,1.29,1.3,3.39,0,4.69Z"/>
    </g>
    <path class="cls-1" d="m711.11,599.1c0,12.42-10.81,18.39-23.11,18.39-11.5,0-20-4.83-24.14-13.68l12.88-7.24c1.61,4.71,5.52,7.48,11.27,7.48,4.71,0,7.93-1.61,7.93-4.95,0-8.39-29.66-3.79-29.66-24.02,0-11.72,10-18.28,21.84-18.28,9.31,0,17.36,4.25,21.84,12.19l-12.64,6.9c-1.72-3.68-4.94-5.86-9.2-5.86-3.68,0-6.67,1.61-6.67,4.71,0,8.51,29.66,3.22,29.66,24.37Z"/>
    <path class="cls-1" d="m761.01,599.1c0,12.42-10.81,18.39-23.11,18.39-11.5,0-20-4.83-24.14-13.68l12.88-7.24c1.61,4.71,5.52,7.48,11.27,7.48,4.71,0,7.93-1.61,7.93-4.95,0-8.39-29.66-3.79-29.66-24.02,0-11.72,10-18.28,21.84-18.28,9.31,0,17.36,4.25,21.84,12.19l-12.64,6.9c-1.72-3.68-4.94-5.86-9.2-5.86-3.68,0-6.67,1.61-6.67,4.71,0,8.51,29.66,3.22,29.66,24.37Z"/>
    <path class="cls-1" d="m798.5,604.04c5.75,0,10.35-2.42,12.88-5.75l11.95,6.9c-5.4,7.82-14.02,12.3-25.06,12.3-19.31,0-31.5-13.22-31.5-30.35s12.3-30.35,30.35-30.35c17.01,0,29.08,13.45,29.08,30.35,0,2.18-.23,4.14-.57,6.09h-43.34c2.07,7.58,8.39,10.81,16.21,10.81Zm12.88-22.3c-1.84-8.28-8.05-11.61-14.25-11.61-7.93,0-13.34,4.25-15.06,11.61h29.31Z"/>
    <path class="cls-1" d="m854.72,572.66v23.91c0,6.21,4.49,6.32,12.99,5.86v13.45c-20.81,2.3-27.82-3.79-27.82-19.31v-23.91h-10v-14.25h10v-11.61l14.83-4.48v16.09h12.99v14.25h-12.99Z"/>
    <path class="cls-1" d="m920.25,599.1c0,12.42-10.81,18.39-23.11,18.39-11.49,0-20-4.83-24.14-13.68l12.87-7.24c1.61,4.71,5.52,7.48,11.27,7.48,4.71,0,7.93-1.61,7.93-4.95,0-8.39-29.66-3.79-29.66-24.02,0-11.72,10-18.28,21.84-18.28,9.31,0,17.36,4.25,21.84,12.19l-12.64,6.9c-1.72-3.68-4.94-5.86-9.2-5.86-3.68,0-6.67,1.61-6.67,4.71,0,8.51,29.66,3.22,29.66,24.37Z"/>
    <path class="cls-1" d="m1024.77,572.66v23.91c0,6.21,4.48,6.32,12.99,5.86v13.45c-20.81,2.3-27.82-3.79-27.82-19.31v-23.91h-10v-14.25h10v-11.61l14.83-4.48v16.09h12.99v14.25h-12.99Z"/>
    <path class="cls-1" d="m1048.22,531.96h14.83v83.92h-14.83v-83.92Z"/>
    <path class="cls-1" d="m1135.13,558.4v57.48h-14.83v-6.78c-4.14,5.17-10.35,8.39-18.74,8.39-15.29,0-27.93-13.22-27.93-30.35s12.64-30.35,27.93-30.35c8.39,0,14.6,3.22,18.74,8.39v-6.78h14.83Zm-14.83,28.74c0-9.66-6.78-16.21-15.98-16.21s-15.87,6.55-15.87,16.21,6.78,16.21,15.87,16.21,15.98-6.55,15.98-16.21Z"/>
    <path class="cls-1" d="m1191.47,599.1c0,12.42-10.81,18.39-23.11,18.39-11.49,0-20-4.83-24.14-13.68l12.87-7.24c1.61,4.71,5.52,7.48,11.27,7.48,4.71,0,7.93-1.61,7.93-4.95,0-8.39-29.66-3.79-29.66-24.02,0-11.72,10-18.28,21.84-18.28,9.31,0,17.36,4.25,21.84,12.19l-12.64,6.9c-1.72-3.68-4.94-5.86-9.2-5.86-3.68,0-6.67,1.61-6.67,4.71,0,8.51,29.66,3.22,29.66,24.37Z"/>
    <polygon class="cls-1" points="632.95 535.41 613.26 535.41 585.12 615.89 602.26 615.89 605.64 605.64 626.22 605.64 626.22 590.28 610.86 590.28 623.15 553.67 634.2 586.57 634.16 586.57 639.12 601.38 643.96 615.89 661.23 615.89 632.95 535.41"/>
  </g>
</svg>